<?xml version="1.0" encoding="utf-8"?>
<svg version="1.1" id="Layer_1" xmlns="http://www.w3.org/2000/svg" xmlns:xlink="http://www.w3.org/1999/xlink" x="0px" y="0px"
	 viewBox="0 0 841.9 595.3" style="enable-background:new 0 0 841.9 595.3;" xml:space="preserve">
<style type="text/css">
	.st0{fill:#C02B39;}
</style>
<g>
	<path class="st0" d="M229.9,331.4c1.5-7.8,2.9-15.7,4.7-23.4c1.2-5.3,2.9-11,9.5-11.5c6.5-0.5,9.1,4.7,11.2,9.9
		c1.2,3,2.2,6.1,3.7,10.1c6.1-12,16.3-13.8,27.7-13.4c10.6,0.4,21.2,0,31.8,0.1c2.6,0,4.3-0.5,4.8-3.5c5-27.5,17.4-52.2,30.1-76.7
		c19.2-37,41.3-72.2,64.5-106.8c0.9-1.3,1.9-2.6,3.2-4.3c1.2,1.4,2.3,2.3,3,3.5c28.6,42.9,56,86.6,77.8,133.5
		c7.6,16.3,14.5,32.8,17.4,50.8c0.2,1.3,2.7,3.3,4.2,3.3c13.2,0.3,26.4,0.1,39.7,0.1c4.4,0,7.4-2.5,8.6-6.1
		c2.9-8.3,5.2-16.7,7.5-25.2c2.1-7.7,3.7-15.5,5.8-23.2c0.6-2.2,2.2-4.4,3.9-6.1c5.3-5.4,13.2-4.3,15.9,3.1
		c2.7,7.6,4.4,15.7,5.1,23.7c1.5,17.1,2.1,34.2,3.1,51.3c0.2,3.5,0.7,7,1.1,10.6c0.4,0.1,0.8,0.1,1.2,0.2c1-4.3,2-8.6,3-12.8
		c1.2-5.1,2.4-10.1,3.9-15.1c0.6-2.1,1.7-4.3,3.1-6c4.2-5.4,10.8-4.9,13.1,1.5c2,5.8,3.2,12,3.6,18.1c1.1,18.4,1.5,36.8,2.2,55.3
		c1,23.8,1.9,47.6,3,71.4c0.1,2.4,0.6,4.8,1.7,7.3c0.9-6.8,2.2-13.6,2.6-20.4c1.8-31.8,3.6-63.5,5-95.3c2.2-46.9,3.7-93.9,6.2-140.8
		c0.9-15.7,4-31.3,6.1-47c0.2-1.4,0.8-2.9,1.4-4.2c1.7-3.5,3.7-6.7,8.1-6.8c4.7-0.1,7.4,3.1,8.5,6.9c1.9,7.2,3.9,14.6,4.2,22
		c1.4,32.9,2.2,65.9,3.2,98.8c0.6,20.2,1.3,40.4,1.9,60.7c0.1,1.9,0.5,3.8,1.6,5.8c1-5.5,1.8-11,3-16.5c0.9-4.1,1.8-8.4,3.6-12.1
		c3.5-7.4,11.2-7.8,15.8-1c1.4,2.1,2.4,4.6,3.4,7c0.9,2.2,1.7,4.5,2.5,6.7c0.6,0,1.1,0.1,1.2-0.1c5.7-9.3,14.3-12.2,24.7-11.7
		c6.3,0.3,12.7,0.1,19.1,0.1c4.8,0,9.3,0.3,13.4-3.9c4-4.1,11-2.7,14.9,1.7c3.9,4.4,3.8,10.9,0,15.2c-4.1,4.5-11,5.7-15.3,1.4
		c-3.5-3.5-7.3-3.7-11.5-3.6c-8,0.1-16,0.2-24,0c-5.9-0.1-9.9,2.3-12.5,7.6c-2.1,4.4-4.3,9.5-10.4,8.8c-6-0.7-7.6-6-9.3-10.8
		c-1-2.7-1.9-5.5-2.9-8.2c-0.4,0-0.9,0-1.3-0.1c-1.1,5.9-2,11.9-3.3,17.8c-1.1,5.1-2.4,10.2-4.2,15c-1.4,3.8-4.4,6.6-8.9,6.4
		c-4.5-0.3-6.7-3.6-7.3-7.4c-1.4-8-3-16.1-3.2-24.2c-1-34.4-1.2-68.8-2.3-103.3c-0.6-19.9-2.4-39.7-3.7-59.5c0-0.6-0.2-1.2-1.4-1.8
		c-1,7.6-2.5,15.3-3,22.9c-1.9,30.1-3.8,60.2-5.1,90.4c-1.9,42.5-2.9,85.1-5.2,127.6c-1.1,21.3-4.1,42.5-6.6,63.7
		c-0.4,3.1-1.8,6.3-3.5,9c-3.4,5.3-9.6,5.2-12.6-0.4c-1.9-3.6-3.3-7.9-3.7-12c-1.6-18.4-3-36.7-3.8-55.1
		c-1.1-25.4-1.5-50.9-2.3-76.3c-0.1-3.2-0.6-6.5-1.8-9.9c-1.2,5.4-2.3,10.8-3.7,16c-1.2,4.4-2.6,8.8-4.4,12.9
		c-1.7,3.8-4.8,6.2-9.3,5.8c-4.2-0.4-6.5-3.5-7.1-7.1c-1.6-10.1-3-20.3-3.9-30.5c-1.5-17.5-2.6-35.1-4-52.7
		c-0.2-2.2-0.9-4.4-2.6-6.7c-0.7,2-1.7,3.9-2.2,5.9c-2.6,11.3-4.9,22.6-7.6,33.9c-0.8,3.3-2.2,6.5-3.8,9.5
		c-4.2,8.5-10.9,13-20.7,12.9c-11.7-0.1-23.5,0.2-35.2-0.1c-4.7-0.1-6.1,1.8-6.7,6.1c-5.7,40.8-28.2,68.4-66.8,82.3
		c-54.6,19.6-117.4-17.1-127.7-74c-0.5-2.6-1.3-5.1-1.3-7.7c0-5.2-2.2-6.8-7.4-6.7c-11.4,0.4-22.8,0.3-34.3,0.1
		c-6.4-0.1-10.9,2.2-13.7,8.1c-2,4.3-4.3,9-10.2,8.4c-5.6-0.6-7.2-5.5-8.9-10c-1.2-3.2-2.2-6.4-4.4-9.6c-1.2,6.5-2.2,13-3.6,19.4
		c-1.1,4.9-2.4,9.8-4.3,14.5c-1.5,3.6-4.5,6.1-8.8,5.8c-4.2-0.4-6.4-3.4-7-7.1c-1.5-9.6-3.3-19.3-3.6-29c-1-36.7-1.3-73.4-2.3-110.1
		c-0.4-14.8-1.8-29.6-2.9-44.4c-0.1-1.8-0.6-3.5-1.8-5.4c-0.8,5.1-2.1,10.3-2.4,15.4c-1.8,24.7-3.8,49.4-4.9,74.2
		c-2.1,46.9-3.3,93.9-5.5,140.8c-1,22-3.5,43.9-5.6,65.8c-0.4,4.2-1.6,8.3-2.8,12.4c-1.3,4.3-3.4,8.7-8.8,8.5
		c-5.3-0.1-7.6-4.4-8.4-8.9c-1.5-8.8-3.3-17.7-3.7-26.6c-1.4-32.3-2.1-64.6-3.3-96.9c-0.3-8.4-1-16.8-2.3-25.2
		c-2,7.9-3.8,15.8-6,23.6c-0.7,2.6-2,5.2-3.6,7.4c-4.4,5.9-11.9,5.4-14.2-1.5c-2.3-6.9-3.4-14.3-4-21.5c-1.6-19.5-2.6-39-4.1-58.6
		c-0.3-3.9-1.3-7.6-2.1-11.5c-0.5-0.1-1.1-0.2-1.6-0.3c-1.2,4.8-2.5,9.6-3.7,14.5c-2.6,10.6-4.5,21.4-8,31.7
		c-4.1,12-11.2,16.1-23.9,16.2c-8.6,0-17.3-0.2-25.9,0.1c-2.2,0.1-4.7,1.2-6.4,2.6c-5.4,4.5-12.1,4.6-16.7-0.2
		c-4.3-4.5-4.2-11.4,0.2-15.9c4.5-4.6,11.4-4.4,16.7,0.2c1.5,1.3,3.9,2.3,5.9,2.4c9.3,0.2,18.6-0.1,27.9,0.2
		c5.8,0.2,9.7-2.3,11.4-7.3c2.6-7.3,4.6-14.9,6.6-22.5c2.1-8,3.7-16.2,5.9-24.2c0.6-2.1,1.9-4.2,3.3-5.9c5-6.1,13.1-5.4,16.4,1.7
		c2.1,4.5,3.7,9.5,4.1,14.5c1.7,19,2.7,38.1,4.1,57.1c0.4,5.1,0.9,10.2,1.4,15.4c0.4,0,0.8,0,1.2,0c1.6-7.1,3-14.3,4.9-21.4
		c1-3.9,2-8.1,4.2-11.4c1.7-2.5,5.1-4.6,8.1-5.1c3.8-0.5,6.2,3,6.8,6.5c1.5,9.8,3.2,19.7,3.6,29.5c1.3,32.9,2.1,65.9,3.2,98.8
		c0.3,7.4,1.2,14.8,2.9,22.2c0.8-6.2,2-12.5,2.4-18.7c2.2-42.8,4.2-85.7,6.2-128.5c1.6-35.2,2.8-70.4,5-105.6
		c1.1-17,3.9-34,6.6-50.8c1.2-7.5,5-10.9,9.4-10.9c4.5,0,8.3,3.1,9.6,10.8c2.2,13.6,4.2,27.4,4.6,41.2c1.2,37.2,1.5,74.4,2.3,111.6
		c0.2,10.4,1,20.8,1.6,31.2C229.3,331.4,229.6,331.4,229.9,331.4z M381.1,315.1c-0.8-1.3-1.4-2.2-2-3.1c-4.6-8-11-11.1-19.6-9.4
		c-7.5,1.5-12.9,7.8-13.9,16.3c-0.7,5.9,0.4,11.4,3.5,16.4c7.5,12.3,18.4,21,30.2,28.8c0.9,0.6,3,0.6,3.9,0
		c12-8,23.4-16.9,30.3-29.9c2.2-4.2,3.1-9.6,3.2-14.5c0.1-8.5-6-15.4-13.5-17.1c-8.7-1.9-15.4,1.2-20,9.3
		C382.6,312.8,382,313.7,381.1,315.1z"/>
	<g>
		<path class="st0" d="M215,481.9v-51.8c21.2-2.3,34.9,0.1,34.9,12.3c0,5.2-2.7,9.1-7.1,11.8c5.9,2.2,8.7,5.9,8.7,11.9
			C251.4,480.3,236,484.5,215,481.9z M227,452.1c8.6,0.3,11.1-1.6,11.1-6.7c0-4.9-3.8-7-11.1-6.2V452.1z M239.4,466.5
			c0-5.7-4.3-6.8-12.4-6.2v12.5C235.9,474.1,239.4,472.3,239.4,466.5z"/>
		<path class="st0" d="M259.7,481.9v-8.8h12.4v-40.5l-12.2-0.7l1-8.5H284v49.7h12.4l-1,8.8H259.7z"/>
		<path class="st0" d="M304,462c0-13.8,9.6-23.6,21.3-23.6c10.6,0,17.9,7.4,17.9,21.3c0,14.3-9.7,23.6-21.3,23.6
			C311.3,483.3,304,475.8,304,462z M331.2,461.7c0-9.3-2.9-13.9-7.9-13.9c-4.4,0-7.1,3.8-7.1,11.9c0,9.4,2.8,13.9,7.9,13.9
			C328.5,473.8,331.2,470,331.2,461.7z"/>
		<path class="st0" d="M350,462c0-13.8,9.6-23.6,21.3-23.6c10.6,0,17.9,7.4,17.9,21.3c0,14.3-9.7,23.6-21.3,23.6
			C357.2,483.3,350,475.8,350,462z M377.1,461.7c0-9.3-2.9-13.9-7.9-13.9c-4.4,0-7.1,3.8-7.1,11.9c0,9.4,2.8,13.9,7.9,13.9
			C374.4,473.8,377.1,470,377.1,461.7z"/>
		<path class="st0" d="M421.8,478.1c-2.7,2.8-6.3,5-10.9,5c-8.8,0-15-7.3-15-20c0-15.7,10.9-24.6,24.9-24.6v-15.3l11.9-1v17
			c0,20.6,0.2,33.3,0.7,42.3l-10.9,0.6L421.8,478.1z M421.2,471.8c-0.2-5.8-0.3-13.4-0.3-22.2c-1.8-0.6-3.6-0.9-5.1-0.9
			c-5.1,0-8,3.8-8,11.6c0,9.3,3.3,13.2,8.3,13.2C418.2,473.4,419.7,472.8,421.2,471.8z"/>
		<path class="st0" d="M452.9,481.9c-4.8-17.2-9.1-34.1-12.9-51.3l12.5-0.8c2.6,13.4,5.5,27.7,8.7,41.1h0.8
			c3.1-13.3,5.9-27.4,8.5-40.7h12.3c-3.8,17.2-8,34.6-12.9,51.8H452.9z"/>
		<path class="st0" d="M488.4,461.7c0-13.2,9.9-23.2,21.2-23.2c12.1,0,17.7,9.3,16.2,24.8l-25.5,0.7c1.3,7,7.6,8.9,24.5,9.2
			l-1.1,9.8C495.5,483.7,488.4,475.5,488.4,461.7z M500.1,457.1c3.8-0.1,9.9-0.3,14.3-0.4c-0.2-5.5-2.2-8.6-6.9-8.6
			C502.9,448.1,500.5,450.5,500.1,457.1z"/>
		<path class="st0" d="M568.1,449.2c-14.1-1.2-19.2-0.4-19.2,2.3c0,4.3,21.7,7.3,21.7,17.8c0,7.8-8.2,14.1-33.2,13.3l0.4-10
			c15.3,0.8,20.4,0,20.4-2.8c0-4.6-21.5-6.3-21.5-17c0-7.8,8.4-14.9,31.1-13.5L568.1,449.2z"/>
		<path class="st0" d="M589,467.3v-18.7h-8.5l1-8.9h7.5v-11l11.8-1.1v12.1h14.7v8.9h-14.7v16.9c0,5.9,3.9,7.1,15.5,7.3l-1.3,9.7
			C595.2,483,589,478.6,589,467.3z"/>
	</g>
</g>
</svg>
